# xmcd
#
# Track frame offsets: 
#        150
#        18269
#        36916
#        61447
#        78387
#        91909
#        108316
#        127875
#        144560
#        163008
#
# Disc length: 2356 seconds
#
# Revision: 1
# Processed by: cddbd v1.5.2PL0 Copyright (c) Steve Scherf et al.
# Submitted via: ExactAudioCopyFreeDBPlugin 1.0
#
DISCID=7a09320a
DTITLE=ไม้เมือง - ชุดที่ 1 - แมงปอปีกบาง
DYEAR=2004
DGENRE=Thai northern folk
TTITLE0=แมงปอปีกบาง
TTITLE1=อย่าปล่อยมือ
TTITLE2=คืนศรัทธา
TTITLE3=อยากพับแผ่นฟ้า
TTITLE4=คู่แท้
TTITLE5=คนเดิมของเธอ
TTITLE6=ก่อนจะรักหมดใจ
TTITLE7=เธอคือคำตอบ
TTITLE8=เงาในใจ
TTITLE9=หนุ่มตาปี สาวแม่ปิง
EXTD=
EXTT0=
EXTT1=
EXTT2=
EXTT3=
EXTT4=
EXTT5=
EXTT6=
EXTT7=
EXTT8=
EXTT9=
PLAYORDER=
